PathFileType	4	(X/Y/Z)	C:\Users\WrightLab\Desktop\Jo\P2_Trial17.trc
DataRate	CameraRate	NumFrames	NumMarkers	Units	OrigDataRate	OrigDataStartFrame	OrigNumFrames
100.00	100.00	      13	19	mm	100.00	646	      1033
Frame#	Time	Headset_Front			Headset_Back			Headset_Left			Headset_Right			Left_Shoulder			Right_Shoulder			Sternum			C7			Left Elbow			Right Elbow			Left Wrist			Right Wrist			Left ASIS			Right ASIS			S2			Left Knee			Right Knee			Left Ankle			Right Ankle			
		X1	Y1	Z1	X2	Y2	Z2	X3	Y3	Z3	X4	Y4	Z4	X5	Y5	Z5	X6	Y6	Z6	X7	Y7	Z7	X8	Y8	Z8	X9	Y9	Z9	X10	Y10	Z10	X11	Y11	Z11	X12	Y12	Z12	X13	Y13	Z13	X14	Y14	Z14	X15	Y15	Z15	X16	Y16	Z16	X17	Y17	Z17	X18	Y18	Z18	X19	Y19	Z19	

646	6.450	-335.73260	1271.33508	77.20770	-348.06738	1570.29797	153.31467	-450.03439	1430.49927	156.87274	-236.59785	1384.85254	80.76166	-454.49988	1422.93713	329.04962	-156.92189	1336.68481	243.87900	-341.67630	1246.73340	282.08667	-243.17073	1427.35742	379.97116	-546.75427	1179.59802	545.77417	-87.77085	925.76233	118.92723	-608.16113	1064.11169	442.23618	-57.14660	1041.34399	298.50229	-392.64694	1012.82336	411.04666	-266.23489	988.35864	388.85553	-285.00415	1005.11853	668.07397	-489.53622	473.72842	550.12616	-154.08453	551.59607	509.54926	-472.43393	126.76702	497.75430	-114.52112	131.72833	425.81644	
647	6.460	-336.11285	1269.98279	76.68178	-348.40994	1569.41174	152.14996	-449.80948	1429.45752	155.69705	-236.95622	1383.72144	79.51085	-455.25748	1422.42676	327.46585	-157.22998	1336.27722	243.16656	-342.18073	1246.20618	280.97705	-244.49519	1427.20764	379.14026	-547.74750	1179.47522	544.85608	-86.09319	926.55566	123.04105	-609.40234	1063.95715	441.06631	-56.32853	1041.26965	302.27203	-393.54922	1012.78149	411.04773	-266.78925	988.35858	388.60922	-286.07571	1005.17163	667.94385	-490.26831	473.66058	550.17169	-154.38603	551.87463	510.68604	-472.45261	126.93456	498.35703	-114.55061	131.35977	425.63293	
648	6.470	-336.50858	1268.69971	75.39342	-348.41736	1568.16272	150.17708	-450.65128	1428.07288	154.29591	-237.00833	1382.68677	78.11553	-456.37033	1422.20117	326.46024	-157.63632	1335.89807	242.32297	-343.18896	1246.02173	279.78680	-247.59586	1427.25525	378.14603	-548.98749	1179.34546	543.92407	-85.11591	927.84808	127.09240	-610.67529	1063.98315	440.13724	-55.46974	1041.14136	305.65854	-394.39090	1012.75146	410.18140	-267.60767	988.58521	388.17606	-287.81012	1005.54608	667.75830	-491.31879	473.69061	550.34430	-154.87828	551.77917	511.28201	-472.45544	126.47699	499.04440	-114.63065	131.61685	425.70853	
649	6.480	-336.07147	1267.56030	74.48759	-348.82675	1567.20264	148.70593	-450.24374	1426.64148	152.77667	-237.07455	1381.05542	77.88011	-456.98956	1421.62781	324.96753	-157.80145	1335.21252	241.65466	-341.23380	1245.98657	280.83234	-248.25769	1427.07922	377.44250	-549.61035	1178.58545	542.51947	-81.66190	929.84027	130.57083	-611.76129	1063.80469	439.33875	-54.52566	1040.86255	308.84955	-395.05646	1012.54211	409.81372	-268.29193	988.80194	387.79950	-289.21332	1005.37799	667.40338	-492.08710	473.41690	549.88611	-155.02031	551.61084	511.61990	-472.43512	125.99053	499.40588	-114.59930	131.88797	425.94077	
650	6.490	-336.06122	1266.27600	74.05611	-349.11795	1565.81812	146.97032	-450.17316	1425.45618	150.87395	-236.87117	1379.86182	77.10859	-457.50986	1421.21375	323.46332	-157.95979	1334.74316	241.34346	-342.04190	1245.47900	280.04993	-248.95465	1426.51489	376.17984	-550.34045	1178.32751	541.66553	-79.76552	931.15997	135.07558	-612.05310	1063.34473	438.20773	-53.92343	1041.20203	312.70581	-395.74417	1012.30847	409.76935	-268.80402	988.75940	387.55954	-290.53461	1005.61359	666.96045	-493.00568	473.13434	549.19702	-155.31038	551.75031	512.25250	-472.63110	125.81168	499.59741	-114.59850	131.98392	425.98599	
651	6.500	-335.60794	1265.96912	72.47785	-349.21518	1565.09583	145.19646	-450.67575	1425.09949	149.82700	-236.91479	1378.77417	76.80297	-458.00986	1420.66528	321.91544	-158.22113	1334.46814	241.11546	-341.74515	1244.88782	279.18680	-249.53302	1426.16589	375.10934	-551.25256	1178.39600	541.05658	-76.71597	932.23199	138.72105	-612.74298	1062.93457	436.97879	-53.24622	1041.71997	316.09103	-396.37054	1011.81305	409.91415	-269.44479	988.47791	387.21957	-291.73563	1005.87860	666.90717	-493.95746	473.20880	548.77393	-155.12123	551.64056	512.99091	-472.93314	125.85081	499.65997	-114.60637	132.06976	426.02646	
652	6.510	-335.97845	1263.66516	72.62198	-349.11880	1564.12964	143.69997	-450.66498	1423.86804	148.32246	-236.48628	1377.51038	75.47116	-458.50873	1420.21216	320.64072	-158.22505	1333.77490	241.10945	-341.92249	1244.10620	278.43750	-249.59386	1425.99377	373.50095	-553.33972	1178.65649	537.63800	-74.99335	934.19922	142.55888	-613.19470	1062.89063	436.38577	-51.95187	1042.39050	319.66830	-396.92358	1011.69586	409.26837	-269.87375	988.32947	386.78128	-292.72470	1006.03412	666.74957	-494.92035	473.44113	548.39783	-155.15805	551.41248	513.42438	-473.25439	125.70422	499.79642	-114.53955	132.02750	426.60226	
653	6.520	-335.59055	1262.26648	71.98564	-349.04135	1562.88831	141.64685	-451.07013	1423.08423	146.95750	-236.38770	1376.16370	75.71046	-458.93271	1419.62280	319.09586	-158.47009	1333.45361	240.76352	-342.32959	1243.58923	278.24521	-250.30609	1425.89673	372.86493	-554.91718	1179.49561	537.24463	-73.49889	936.62195	147.65504	-613.39545	1062.83264	435.55038	-51.38470	1043.16357	323.43179	-397.35349	1011.81659	408.23236	-270.93732	987.47522	387.21591	-293.40939	1006.27533	666.29871	-495.77646	473.49057	548.26459	-155.16658	551.42590	513.69556	-473.95609	125.69965	499.93768	-114.71767	132.27710	426.54926	
654	6.530	-335.43051	1261.38794	71.43594	-349.19699	1562.20142	140.42499	-450.78317	1421.96350	145.10654	-236.05476	1375.09045	74.64235	-459.43900	1419.33142	318.09726	-158.61389	1333.17090	240.24385	-342.23111	1243.26001	277.89963	-251.12839	1426.09375	372.16150	-555.47760	1179.50195	536.47510	-70.75623	938.20258	151.01613	-614.22168	1062.61731	434.85443	-50.37411	1044.11011	326.97137	-397.79190	1011.62384	407.82819	-271.16360	987.43427	387.10345	-294.74728	1006.48865	665.99884	-496.33893	473.81885	547.74615	-154.94049	551.58136	513.42303	-474.50806	125.79877	499.92392	-114.39735	133.06833	428.58252	
655	6.540	-334.61456	1260.53040	70.93324	-349.18399	1561.42969	138.34903	-450.57727	1421.08533	143.93726	-235.64211	1374.04016	73.71995	-459.81424	1418.89783	316.76306	-158.72905	1332.59082	239.89444	-342.23111	1243.26001	277.89963	-251.46477	1425.96521	371.00250	-555.61249	1178.89954	535.09784	-67.65233	939.70990	154.54295	-614.09082	1061.81543	433.44211	-49.36997	1045.24841	330.31973	-398.14111	1011.64886	407.12781	-271.41809	987.40021	386.98044	-295.65515	1006.89471	665.64954	-496.49478	474.19348	547.36011	-154.96289	551.42883	513.96277	-474.91238	126.03857	499.64301	-114.90401	133.26572	428.59616	
656	6.550	-334.53387	1258.51807	70.92538	-349.25580	1560.69080	136.90559	-450.96097	1420.28735	142.20377	-235.43382	1373.42883	73.04365	-460.23877	1418.39734	315.29868	-158.78241	1331.95789	239.78458	-342.03217	1242.74670	276.90070	-252.28793	1426.01257	370.10852	-555.79907	1178.67139	534.22302	-65.77629	940.90796	158.11615	-614.38055	1061.50281	432.68283	-48.20923	1046.70410	334.52576	-398.44327	1011.55579	406.46268	-270.97504	987.51746	385.70358	-296.28238	1007.06073	665.02258	-496.98401	474.30405	546.78418	-154.73680	551.80505	514.66602	-475.30270	126.15417	499.48544	-114.91234	133.32971	428.63879	
657	6.560	-333.99396	1257.80835	70.82463	-349.00183	1559.75513	135.04179	-450.71271	1419.76074	141.25320	-235.11395	1372.51746	72.71064	-460.86316	1418.07043	314.40671	-158.68529	1331.80408	239.54315	-342.03217	1242.74670	276.90070	-252.78999	1425.92163	369.40512	-555.98669	1178.38660	533.20087	-62.97619	942.32257	162.53596	-614.46149	1061.35254	432.00320	-47.34439	1047.78015	337.25156	-398.72656	1011.40961	405.47134	-270.63599	987.66351	386.31677	-296.57306	1006.99243	664.65424	-497.24725	474.52267	546.50037	-154.29092	552.04346	515.42261	-475.65497	126.21598	499.39639	-114.93939	133.37186	428.67297	
658	6.570	-332.91403	1257.80872	70.44968	-348.78851	1558.95361	133.23418	-449.78122	1418.36548	139.40201	-234.26942	1371.32471	71.75931	-461.47495	1417.55737	313.29507	-158.70509	1331.67212	239.53362	-341.28583	1242.14185	276.66486	-253.72676	1426.28259	368.82059	-556.44464	1178.04932	532.42078	-60.81646	943.84290	165.48843	-614.64410	1060.78601	431.13498	-46.31427	1049.39648	341.00549	-398.80798	1011.52460	404.71848	-270.68213	987.77039	386.04486	-296.94882	1007.35168	664.32007	-497.37653	474.61578	546.34888	-153.83469	552.04950	515.83551	-476.07730	126.50920	499.18832	-114.96379	133.62306	428.46567	
